<svg height="512" viewBox="0 0 64 64" width="512" xmlns="http://www.w3.org/2000/svg"><g id="Filled_outline" data-name="Filled outline"><path d="m12 57h40v4h-40z" fill="#2d75bb"/><path d="m6 51h52a0 0 0 0 1 0 0v2a4 4 0 0 1 -4 4h-44a4 4 0 0 1 -4-4v-2a0 0 0 0 1 0 0z" fill="#50b4f8"/><path d="m16 26h32a2 2 0 0 1 2 2v23a0 0 0 0 1 0 0h-36a0 0 0 0 1 0 0v-23a2 2 0 0 1 2-2z" fill="#ffd782"/><path d="m20 15h24a2 2 0 0 1 2 2v9a0 0 0 0 1 0 0h-28a0 0 0 0 1 0 0v-9a2 2 0 0 1 2-2z" fill="#ffd782"/><path d="m22 15v4a2 2 0 0 0 4 0 2 2 0 0 1 4 0v3a2 2 0 0 0 4 0v-1a2 2 0 0 1 4 0 2 2 0 0 0 4 0v-6z" fill="#ad6327"/><path d="m14 28v5.875a2.086 2.086 0 0 0 1.851 2.12 2 2 0 0 0 2.149-1.959 2.053 2.053 0 0 1 1.682-2.011 2 2 0 0 1 2.318 1.975v4.893a2.075 2.075 0 0 0 1.664 2.08 2 2 0 0 0 2.336-1.973v-6.893a2.075 2.075 0 0 1 1.664-2.08 2 2 0 0 1 2.336 1.973v12.893a2.075 2.075 0 0 0 1.664 2.08 2 2 0 0 0 2.336-1.973v-10.893a2.075 2.075 0 0 1 1.664-2.08 2 2 0 0 1 2.336 1.973v4.893a2.075 2.075 0 0 0 1.664 2.08 2 2 0 0 0 2.336-1.973v-6.893a2.075 2.075 0 0 1 1.664-2.08 2 2 0 0 1 2.336 1.973v12.893a2.075 2.075 0 0 0 1.664 2.08 2 2 0 0 0 2.336-1.973v-17a2 2 0 0 0 -2-2h-32a2 2 0 0 0 -2 2z" fill="#ad6327"/><g fill="#d9176c"><path d="m17 40h2v2h-2z"/><path d="m20 46h2v2h-2z"/><path d="m25 44h2v2h-2z"/><path d="m37 46h2v2h-2z"/><path d="m41 44h2v2h-2z"/></g><circle cx="32" cy="12" fill="#dd3e46" r="3"/><circle cx="53" cy="48" fill="#dd3e46" r="3"/><path d="m24 3h2a6 6 0 0 1 6 6 0 0 0 0 1 0 0h-2a6 6 0 0 1 -6-6 0 0 0 0 1 0 0z" fill="#55b56a"/><path d="m38 3h2a0 0 0 0 1 0 0 6 6 0 0 1 -6 6h-2a0 0 0 0 1 0 0 6 6 0 0 1 6-6z" fill="#8ec13f" transform="matrix(-1 0 0 -1 72 12)"/><path d="m57 39a0 0 0 0 1 0 0v2a4 4 0 0 1 -4 4 0 0 0 0 1 0 0v-2a4 4 0 0 1 4-4z" fill="#55b56a" transform="matrix(-1 0 0 -1 110 84)"/><circle cx="11" cy="48" fill="#dd3e46" r="3"/><path d="m7 39a4 4 0 0 1 4 4v2a0 0 0 0 1 0 0 4 4 0 0 1 -4-4v-2a0 0 0 0 1 0 0z" fill="#55b56a"/><path d="m58 50h-1.556a3.938 3.938 0 0 0 -.651-4.855 5 5 0 0 0 2.207-4.145v-3h-1a5.006 5.006 0 0 0 -5 5v1.142a3.966 3.966 0 0 0 -1 .414v-16.556a3 3 0 0 0 -3-3h-1v-8a3 3 0 0 0 -3-3h-8.556a3.9 3.9 0 0 0 -.075-4.136 7.011 7.011 0 0 0 5.631-6.864v-1h-3a7 7 0 0 0 -6 3.413 7 7 0 0 0 -6-3.413h-3v1a7.011 7.011 0 0 0 5.631 6.864 3.9 3.9 0 0 0 -.075 4.136h-8.556a3 3 0 0 0 -3 3v8h-1a3 3 0 0 0 -3 3v16.556a3.966 3.966 0 0 0 -1-.414v-1.142a5.006 5.006 0 0 0 -5-5h-1v3a5 5 0 0 0 2.207 4.145 3.938 3.938 0 0 0 -.651 4.855h-1.556a1 1 0 0 0 -1 1v2a5.006 5.006 0 0 0 5 5h1v3a1 1 0 0 0 1 1h40a1 1 0 0 0 1-1v-3h1a5.006 5.006 0 0 0 5-5v-2a1 1 0 0 0 -1-1zm-4-7a3.006 3.006 0 0 1 2-2.829v.829a3.006 3.006 0 0 1 -2 2.829zm-1 3a2 2 0 1 1 -2 2 2 2 0 0 1 2-2zm-15-42h.9a5.008 5.008 0 0 1 -4.9 4h-.9a5.008 5.008 0 0 1 4.9-4zm-6 6a2 2 0 1 1 -2 2 2 2 0 0 1 2-2zm-6.9-6h.9a5.008 5.008 0 0 1 4.9 4h-.9a5.008 5.008 0 0 1 -4.9-4zm-2.1 12h18v5a1 1 0 0 1 -2 0 3 3 0 0 0 -6 0v1a1 1 0 0 1 -2 0v-3a3 3 0 0 0 -6 0 1 1 0 0 1 -2 0zm-4 1a1 1 0 0 1 1-1h1v3a3 3 0 0 0 6 0 1 1 0 0 1 2 0v3a3 3 0 0 0 6 0v-1a1 1 0 0 1 2 0 3 3 0 0 0 6 0v-5h1a1 1 0 0 1 1 1v8h-26zm-4 11a1 1 0 0 1 1-1h32a1 1 0 0 1 1 1v17a1 1 0 0 1 -1.175.986 1.085 1.085 0 0 1 -.825-1.093v-12.893a3 3 0 0 0 -3.5-2.959 3.082 3.082 0 0 0 -2.5 3.066v6.893a1 1 0 0 1 -.353.762 1.009 1.009 0 0 1 -.822.224 1.085 1.085 0 0 1 -.825-1.093v-4.893a3 3 0 0 0 -3.5-2.959 3.082 3.082 0 0 0 -2.5 3.066v10.893a1 1 0 0 1 -1.175.986 1.085 1.085 0 0 1 -.825-1.093v-12.893a3 3 0 0 0 -3.5-2.959 3.082 3.082 0 0 0 -2.5 3.066v6.893a1 1 0 0 1 -.353.762 1.009 1.009 0 0 1 -.822.224 1.085 1.085 0 0 1 -.825-1.093v-4.893a3 3 0 0 0 -3.47-2.964 3.067 3.067 0 0 0 -2.53 2.983.99.99 0 0 1 -.326.719 1.006 1.006 0 0 1 -.751.259 1.089 1.089 0 0 1 -.923-1.122zm0 8.81a2.821 2.821 0 0 0 .778.182 2.983 2.983 0 0 0 2.245-.777 3.014 3.014 0 0 0 .977-2.161 1.061 1.061 0 0 1 .834-1.041 1 1 0 0 1 1.166.987v4.893a3.082 3.082 0 0 0 2.5 3.066 3 3 0 0 0 3.5-2.959v-6.893a1.085 1.085 0 0 1 .825-1.093 1.013 1.013 0 0 1 .822.224 1 1 0 0 1 .353.762v12.893a3.082 3.082 0 0 0 2.5 3.066 3 3 0 0 0 3.5-2.959v-10.893a1.085 1.085 0 0 1 .825-1.093 1 1 0 0 1 1.175.986v4.893a3.082 3.082 0 0 0 2.5 3.066 3 3 0 0 0 3.5-2.959v-6.893a1.085 1.085 0 0 1 .825-1.093 1.013 1.013 0 0 1 .822.224 1 1 0 0 1 .353.762v12.893a3.082 3.082 0 0 0 2.5 3.066 2.973 2.973 0 0 0 1.5-.134v2.175h-34zm-4 9.19a2 2 0 1 1 -2 2 2 2 0 0 1 2-2zm-3-5v-.829a3.006 3.006 0 0 1 2 2.829v.829a3.006 3.006 0 0 1 -2-2.829zm43 19h-38v-2h38zm6-7a3 3 0 0 1 -3 3h-44a3 3 0 0 1 -3-3v-1h50z"/><path d="m17 40h2v2h-2z"/><path d="m20 46h2v2h-2z"/><path d="m25 44h2v2h-2z"/><path d="m37 46h2v2h-2z"/><path d="m41 44h2v2h-2z"/></g></svg>